<svg id="Layer_1" data-name="Layer 1" xmlns="http://www.w3.org/2000/svg" viewBox="0 0 1574.48 234.09"><defs><style>.cls-1{fill:#fdf1e8;stroke:#fdf1e8;stroke-miterlimit:10;stroke-width:27.27px;}</style></defs><path d="M11.34,134.84V99.73h13A14.55,14.55,0,0,1,30.68,101a9.63,9.63,0,0,1,4.18,3.71,11.07,11.07,0,0,1,1.48,5.88,12.48,12.48,0,0,1-.84,4.67A9.76,9.76,0,0,1,33,118.87a11.48,11.48,0,0,1-3.95,2.33l11.4,13.64H30.11l-9.79-12.68h-.77v12.68Zm8.21-19.47H21.7a9.07,9.07,0,0,0,3.3-.52,4.13,4.13,0,0,0,2-1.54,4.23,4.23,0,0,0,.7-2.47,4,4,0,0,0-1.56-3.38,7.31,7.31,0,0,0-4.47-1.17H19.55Z"/><path d="M44.3,134.84V99.73H64.5V107h-12v6.7H64v7.19H52.52v6.79h12v7.21Z"/><path d="M81.84,135.53a21.41,21.41,0,0,1-4.41-.44,20.14,20.14,0,0,1-3.75-1.15,23.61,23.61,0,0,1-3-1.49A14.34,14.34,0,0,1,68.62,131l4.11-6.89c.57.41,1.2.84,1.89,1.3a19.43,19.43,0,0,0,2.26,1.25,15.63,15.63,0,0,0,2.53.94,10.09,10.09,0,0,0,2.66.36,6,6,0,0,0,2.2-.36,3,3,0,0,0,1.43-1.09,3.1,3.1,0,0,0,.5-1.79,3.23,3.23,0,0,0-.46-1.76,4.57,4.57,0,0,0-1.39-1.38A17.66,17.66,0,0,0,82,120.23c-1-.46-2.09-1-3.4-1.58a17,17,0,0,1-2.7-1.54,11.25,11.25,0,0,1-2.18-2,8.72,8.72,0,0,1-1.45-2.46,8,8,0,0,1-.52-2.92,9.5,9.5,0,0,1,.85-4A11,11,0,0,1,75,102.37,11.54,11.54,0,0,1,78.72,100a12.76,12.76,0,0,1,4.84-.88,17,17,0,0,1,3.82.44,24.23,24.23,0,0,1,3.76,1.19,14.66,14.66,0,0,1,3.06,1.69L90.88,109a14.51,14.51,0,0,0-2.19-1.25,13.47,13.47,0,0,0-2.46-.84,10.6,10.6,0,0,0-2.46-.3,5.58,5.58,0,0,0-2.15.38,3.11,3.11,0,0,0-1.37,1,2.62,2.62,0,0,0-.48,1.56,2.23,2.23,0,0,0,1.12,2,9.35,9.35,0,0,0,1.43.74c.57.25,1.23.54,2,.88q2.64,1.11,4.68,2.19a17.51,17.51,0,0,1,3.41,2.34,8.63,8.63,0,0,1,2.11,2.92,9.71,9.71,0,0,1,.72,3.89,10,10,0,0,1-6.3,9.72A17.58,17.58,0,0,1,81.84,135.53Z"/><path d="M101.54,134.84V99.73h20.19V107h-12v6.7h11.47v7.19H109.75v6.79h12v7.21Z"/><path d="M125.35,134.84l14.19-35.11h7.62l14.2,35.11h-8.84L150,128H136.69l-2.51,6.83Zm14.13-14h7.72l-3.85-9.94Z"/><path d="M165.53,134.84V99.73h13a14.58,14.58,0,0,1,6.34,1.29,9.68,9.68,0,0,1,4.18,3.71,11.07,11.07,0,0,1,1.48,5.88,12.48,12.48,0,0,1-.84,4.67,9.78,9.78,0,0,1-2.47,3.59,11.39,11.39,0,0,1-3.95,2.33l11.41,13.64H184.29l-9.79-12.68h-.76v12.68Zm8.21-19.47h2.15a9.14,9.14,0,0,0,3.3-.52,4.17,4.17,0,0,0,2-1.54,4.3,4.3,0,0,0,.69-2.47,4,4,0,0,0-1.55-3.38,7.35,7.35,0,0,0-4.47-1.17h-2.15Z"/><path d="M214.47,135.53a19.93,19.93,0,0,1-7.5-1.41,20.29,20.29,0,0,1-6.24-3.9,18.32,18.32,0,0,1-4.24-5.81,17.06,17.06,0,0,1,0-14.19,18.56,18.56,0,0,1,4.24-5.82,20.08,20.08,0,0,1,6.22-3.9,19.83,19.83,0,0,1,7.46-1.4,20.8,20.8,0,0,1,6.15.9,18.54,18.54,0,0,1,5,2.29l-3.49,7a10.26,10.26,0,0,0-3.18-1.56,13.33,13.33,0,0,0-3.9-.57,12.29,12.29,0,0,0-4.4.77,10.79,10.79,0,0,0-3.52,2.15,10,10,0,0,0-2.36,3.22,9.88,9.88,0,0,0,0,8,10.12,10.12,0,0,0,2.36,3.23,10.94,10.94,0,0,0,3.52,2.14,12.07,12.07,0,0,0,4.4.77,13.33,13.33,0,0,0,3.9-.57,10,10,0,0,0,3.18-1.56l3.49,7a18.38,18.38,0,0,1-4.87,2.27A20.28,20.28,0,0,1,214.47,135.53Z"/><path d="M230.43,134.84V99.73h8.21v13.92h10.94V99.73h8.21v35.11h-8.21v-14H238.64v14Z"/><path class="cls-1" d="M607.19,50.28a8.22,8.22,0,0,0-6.06-2.56,8.74,8.74,0,0,0-8.69,8.89,9.25,9.25,0,0,0,2.7,6.47l51.11,51.49-51.11,51.34a9.42,9.42,0,0,0-2.7,6.48,8.73,8.73,0,0,0,8.69,8.88,8.18,8.18,0,0,0,6.06-2.56L664,121.5a9.82,9.82,0,0,0,3.07-7,9.46,9.46,0,0,0-3.07-6.93Z"/><path d="M660.4,134V98.87h13a15.15,15.15,0,0,1,6.12,1.19,9.71,9.71,0,0,1,4.3,3.6,10.81,10.81,0,0,1,1.58,6,11.44,11.44,0,0,1-1.58,6.18,10.22,10.22,0,0,1-4.3,3.83A13.81,13.81,0,0,1,673.4,121h-4.79v13Zm8.21-19.47h2.15a10.31,10.31,0,0,0,2.9-.4,4.66,4.66,0,0,0,2.25-1.39,4,4,0,0,0,.88-2.74,4.13,4.13,0,0,0-.88-2.79,4.43,4.43,0,0,0-2.25-1.38,10.68,10.68,0,0,0-2.9-.39h-2.15Z"/><path d="M690.89,134V98.87h13a14.63,14.63,0,0,1,6.35,1.29,9.62,9.62,0,0,1,4.18,3.71,11.15,11.15,0,0,1,1.48,5.87,12.22,12.22,0,0,1-.85,4.67,9.8,9.8,0,0,1-2.46,3.6,11.39,11.39,0,0,1-4,2.33L720.05,134H709.66l-9.79-12.68h-.76V134Zm8.22-19.47h2.15a9,9,0,0,0,3.29-.52,4.21,4.21,0,0,0,2-1.54,4.34,4.34,0,0,0,.69-2.47,4,4,0,0,0-1.56-3.39,7.29,7.29,0,0,0-4.46-1.17h-2.15Z"/><path d="M738.86,134.66a17.13,17.13,0,0,1-6.9-1.4,17.69,17.69,0,0,1-5.64-3.91,18.6,18.6,0,0,1,0-25.81,17.5,17.5,0,0,1,5.64-3.9,17.56,17.56,0,0,1,13.79,0,17.5,17.5,0,0,1,5.64,3.9,18.6,18.6,0,0,1,0,25.81,17.69,17.69,0,0,1-5.64,3.91A17.11,17.11,0,0,1,738.86,134.66Zm0-7.91a8.66,8.66,0,0,0,3.61-.74,8,8,0,0,0,2.81-2.11,9.69,9.69,0,0,0,1.83-3.26,13.86,13.86,0,0,0,0-8.39,9.69,9.69,0,0,0-1.83-3.26,8,8,0,0,0-2.81-2.11,8.66,8.66,0,0,0-3.61-.73,8.54,8.54,0,0,0-3.57.73,8,8,0,0,0-2.8,2.11,9.69,9.69,0,0,0-1.83,3.26,13.86,13.86,0,0,0,0,8.39,9.69,9.69,0,0,0,1.83,3.26,8,8,0,0,0,2.8,2.11A8.54,8.54,0,0,0,738.83,126.75Z"/><path d="M765.45,134v-27.9H757.2V98.87h24.68v7.21h-8.23V134Z"/><path d="M800.22,134.66a17.11,17.11,0,0,1-6.89-1.4,17.69,17.69,0,0,1-5.64-3.91,18.6,18.6,0,0,1,0-25.81,17.5,17.5,0,0,1,5.64-3.9,17.56,17.56,0,0,1,13.79,0,17.5,17.5,0,0,1,5.64,3.9,18.63,18.63,0,0,1,0,25.81,17.69,17.69,0,0,1-5.64,3.91A17.16,17.16,0,0,1,800.22,134.66Zm0-7.91a8.7,8.7,0,0,0,3.61-.74,8,8,0,0,0,2.81-2.11,10,10,0,0,0,1.83-3.26,13.86,13.86,0,0,0,0-8.39,10,10,0,0,0-1.83-3.26,8,8,0,0,0-2.81-2.11,8.69,8.69,0,0,0-3.61-.73,8.51,8.51,0,0,0-3.57.73,8,8,0,0,0-2.8,2.11,9.69,9.69,0,0,0-1.83,3.26,13.86,13.86,0,0,0,0,8.39,9.69,9.69,0,0,0,1.83,3.26,8,8,0,0,0,2.8,2.11A8.51,8.51,0,0,0,800.2,126.75Z"/><path d="M826.82,134v-27.9h-8.26V98.87h24.69v7.21H835V134Z"/><path d="M855.67,134V118.19l-13-19.32h9.9l7.19,11,7.21-11h9.9l-13,19.32V134Z"/><path d="M880.49,134V98.87h13a15.07,15.07,0,0,1,6.11,1.19,9.66,9.66,0,0,1,4.3,3.6,10.73,10.73,0,0,1,1.59,6,11.36,11.36,0,0,1-1.59,6.18,10.16,10.16,0,0,1-4.3,3.83,13.74,13.74,0,0,1-6.11,1.31H888.7v13Zm8.21-19.47h2.15a10.19,10.19,0,0,0,2.89-.4,4.69,4.69,0,0,0,2.26-1.39,4,4,0,0,0,.87-2.74,4.13,4.13,0,0,0-.87-2.79,4.46,4.46,0,0,0-2.26-1.38,10.56,10.56,0,0,0-2.89-.39H888.7Z"/><path d="M911,134V98.87h20.19v7.21h-12v6.71h11.47V120H919.19v6.79h12V134Z"/><path class="cls-1" d="M978,50.28A8.24,8.24,0,0,0,972,47.72a8.74,8.74,0,0,0-8.69,8.89,9.25,9.25,0,0,0,2.7,6.47l51.11,51.49L966,165.91a9.42,9.42,0,0,0-2.7,6.48,8.73,8.73,0,0,0,8.69,8.88,8.2,8.2,0,0,0,6.06-2.56l56.81-57.21a9.82,9.82,0,0,0,3.07-7,9.46,9.46,0,0,0-3.07-6.93Z"/><path d="M1035.29,134v-27.9H1027V98.87h24.68v7.21h-8.23V134Z"/><path d="M1056.42,134V98.87h20.19v7.21h-12v6.71h11.47V120h-11.47v6.79h12V134Z"/><path d="M1094,134.66a21.26,21.26,0,0,1-4.4-.43,21.88,21.88,0,0,1-3.76-1.15,25,25,0,0,1-3-1.49,13.66,13.66,0,0,1-2.07-1.48l4.1-6.9c.57.42,1.2.85,1.9,1.3a18.53,18.53,0,0,0,2.25,1.26,15.6,15.6,0,0,0,2.53.93,10.1,10.1,0,0,0,2.66.37,6.08,6.08,0,0,0,2.21-.37,2.86,2.86,0,0,0,1.92-2.87,3.38,3.38,0,0,0-.45-1.77,4.84,4.84,0,0,0-1.4-1.38,18.68,18.68,0,0,0-2.37-1.32c-1-.45-2.09-1-3.4-1.57a17.05,17.05,0,0,1-2.7-1.55,11.23,11.23,0,0,1-2.18-2,8.53,8.53,0,0,1-1.45-2.45,8.24,8.24,0,0,1-.52-2.93,9.72,9.72,0,0,1,.85-4,11.06,11.06,0,0,1,2.41-3.4,11.22,11.22,0,0,1,3.73-2.39,12.79,12.79,0,0,1,4.84-.89,17.07,17.07,0,0,1,3.82.45,22.59,22.59,0,0,1,3.76,1.19,15.12,15.12,0,0,1,3.06,1.68l-3.32,6.53a13.56,13.56,0,0,0-2.19-1.24,13.22,13.22,0,0,0-2.46-.84,10.58,10.58,0,0,0-2.45-.3,5.71,5.71,0,0,0-2.15.37,3,3,0,0,0-1.37,1.05,2.58,2.58,0,0,0-.48,1.56,2.35,2.35,0,0,0,.27,1.15,2.52,2.52,0,0,0,.84.85,9.4,9.4,0,0,0,1.43.73l2,.89c1.76.74,3.31,1.47,4.67,2.19a16.68,16.68,0,0,1,3.41,2.34,8.37,8.37,0,0,1,2.11,2.92,9.68,9.68,0,0,1,.72,3.89,10.47,10.47,0,0,1-1.65,5.93,10.31,10.31,0,0,1-4.65,3.78A17.41,17.41,0,0,1,1094,134.66Z"/><path d="M1115.68,134v-27.9h-8.26V98.87h24.68v7.21h-8.23V134Z"/><path d="M1136.81,134V98.87H1145V134Z"/><path d="M1153.94,134V98.87h8.21l13.79,21.47V98.87h8.21V134h-8.21l-13.79-21.47V134Z"/><path d="M1207.56,134.66a16.49,16.49,0,0,1-6.74-1.38,17,17,0,0,1-5.45-3.85,17.64,17.64,0,0,1-3.65-5.8,19.36,19.36,0,0,1-1.31-7.2,19.84,19.84,0,0,1,1.25-7.07,17.59,17.59,0,0,1,3.6-5.8,16.61,16.61,0,0,1,5.62-3.91,18.06,18.06,0,0,1,7.29-1.42,23.88,23.88,0,0,1,8.95,1.8,17.72,17.72,0,0,1,4,2.27l-3.81,6.36a12.77,12.77,0,0,0-4.27-2.3,15.24,15.24,0,0,0-4.71-.81,9.31,9.31,0,0,0-3.89.77,7.84,7.84,0,0,0-2.83,2.16,9.37,9.37,0,0,0-1.73,3.32,14.53,14.53,0,0,0-.59,4.24,14.94,14.94,0,0,0,.66,4.6,10.64,10.64,0,0,0,1.84,3.49,8.08,8.08,0,0,0,2.78,2.21,7.79,7.79,0,0,0,3.42.77,8.29,8.29,0,0,0,2.83-.48,7.47,7.47,0,0,0,2.37-1.35,6.63,6.63,0,0,0,1.6-2,5.19,5.19,0,0,0,.59-2.43v-.28h-7.85v-6.32h16.23v6.13a12.21,12.21,0,0,1-1.32,5.62,14.67,14.67,0,0,1-3.58,4.54,17.09,17.09,0,0,1-5.18,3A17.47,17.47,0,0,1,1207.56,134.66Z"/><path class="cls-1" d="M1261.69,50.28a8.2,8.2,0,0,0-6.06-2.56,8.74,8.74,0,0,0-8.69,8.89,9.25,9.25,0,0,0,2.7,6.47l51.12,51.49-51.12,51.34a9.42,9.42,0,0,0-2.7,6.48,8.73,8.73,0,0,0,8.69,8.88,8.17,8.17,0,0,0,6.06-2.56l56.82-57.21a9.77,9.77,0,0,0,3.06-7,9.45,9.45,0,0,0-3.06-6.93Z"/><path d="M1314.91,134V98.87h8.21V134Z"/><path d="M1334.06,134v-27.9h-8.26V98.87h24.69v7.21h-8.24V134Z"/><path d="M1355.19,134V98.87h20.19v7.21h-12v6.71h11.47V120H1363.4v6.79h12V134Z"/><path d="M1383.45,134V98.87h13a14.58,14.58,0,0,1,6.34,1.29,9.62,9.62,0,0,1,4.18,3.71,11.05,11.05,0,0,1,1.48,5.87,12.41,12.41,0,0,1-.84,4.67,9.7,9.7,0,0,1-2.47,3.6,11.39,11.39,0,0,1-4,2.33L1412.6,134h-10.39l-9.78-12.68h-.77V134Zm8.21-19.47h2.15a9.14,9.14,0,0,0,3.3-.52,4.23,4.23,0,0,0,2-1.54,4.32,4.32,0,0,0,.69-2.47,4,4,0,0,0-1.55-3.39,7.35,7.35,0,0,0-4.47-1.17h-2.15Z"/><path d="M1411.7,134l14.2-35.11h7.61l14.2,35.11h-8.83l-2.51-6.83h-13.32l-2.52,6.83Zm14.13-14h7.73l-3.85-9.94Z"/><path d="M1453.9,134v-27.9h-8.26V98.87h24.69v7.21h-8.24V134Z"/><path d="M1475,134V98.87h8.21V134Z"/><path d="M1507.16,134.66a17.11,17.11,0,0,1-6.89-1.4,17.58,17.58,0,0,1-5.64-3.91,18.6,18.6,0,0,1,0-25.81,17.39,17.39,0,0,1,5.64-3.9,17.56,17.56,0,0,1,13.79,0,17.35,17.35,0,0,1,5.63,3.9,18.6,18.6,0,0,1,0,25.81,17.53,17.53,0,0,1-5.63,3.91A17.16,17.16,0,0,1,1507.16,134.66Zm0-7.91a8.7,8.7,0,0,0,3.61-.74,7.92,7.92,0,0,0,2.8-2.11,9.69,9.69,0,0,0,1.83-3.26,13.86,13.86,0,0,0,0-8.39,9.69,9.69,0,0,0-1.83-3.26,7.92,7.92,0,0,0-2.8-2.11,8.69,8.69,0,0,0-3.61-.73,8.55,8.55,0,0,0-3.58.73,8,8,0,0,0-2.79,2.11,9.69,9.69,0,0,0-1.83,3.26,13.86,13.86,0,0,0,0,8.39,9.69,9.69,0,0,0,1.83,3.26,8,8,0,0,0,2.79,2.11A8.56,8.56,0,0,0,1507.14,126.75Z"/><path d="M1531.06,134V98.87h8.21l13.79,21.47V98.87h8.21V134h-8.21l-13.79-21.47V134Z"/><path class="cls-1" d="M289.23,50.28a8.22,8.22,0,0,0-6.06-2.56,8.74,8.74,0,0,0-8.69,8.89,9.25,9.25,0,0,0,2.7,6.47l51.12,51.49-51.12,51.34a9.42,9.42,0,0,0-2.7,6.48,8.73,8.73,0,0,0,8.69,8.88,8.18,8.18,0,0,0,6.06-2.56L346,121.5a9.82,9.82,0,0,0,3.07-7,9.46,9.46,0,0,0-3.07-6.93Z"/><path d="M342.44,134V98.87h8.22V134Z"/><path d="M359.57,134V98.87h10.28a18,18,0,0,1,7,1.34,17.43,17.43,0,0,1,9.39,9.35,18.37,18.37,0,0,1,0,13.8,16.93,16.93,0,0,1-3.75,5.58,17.4,17.4,0,0,1-5.64,3.71,18.06,18.06,0,0,1-7,1.33Zm8.21-7.34h1.11a9.94,9.94,0,0,0,3.93-.76,9.15,9.15,0,0,0,3.1-2.12,9.85,9.85,0,0,0,2-3.24,11.28,11.28,0,0,0,.72-4.1,11.41,11.41,0,0,0-.71-4.07,9.55,9.55,0,0,0-2-3.23,9.31,9.31,0,0,0-3.1-2.14,9.93,9.93,0,0,0-3.94-.77h-1.11Z"/><path d="M393.66,134V98.87h20.19v7.21h-12v6.71h11.47V120H401.87v6.79h12V134Z"/><path d="M417.47,134l14.19-35.11h7.62L453.47,134h-8.83l-2.51-6.83H428.81L426.3,134Zm14.13-14h7.72L435.47,110Z"/><path d="M459.67,134v-27.9h-8.26V98.87h24.68v7.21h-8.23V134Z"/><path d="M480.8,134V98.87H489V134Z"/><path d="M512.93,134.66a17.13,17.13,0,0,1-6.9-1.4,17.69,17.69,0,0,1-5.64-3.91,18.6,18.6,0,0,1,0-25.81,17.5,17.5,0,0,1,5.64-3.9,17.56,17.56,0,0,1,13.79,0,17.5,17.5,0,0,1,5.64,3.9,18.6,18.6,0,0,1,0,25.81,17.69,17.69,0,0,1-5.64,3.91A17.11,17.11,0,0,1,512.93,134.66Zm0-7.91a8.65,8.65,0,0,0,3.6-.74,8,8,0,0,0,2.81-2.11,9.69,9.69,0,0,0,1.83-3.26,13.86,13.86,0,0,0,0-8.39,9.69,9.69,0,0,0-1.83-3.26,8,8,0,0,0-2.81-2.11,8.64,8.64,0,0,0-3.6-.73,8.55,8.55,0,0,0-3.58.73,8,8,0,0,0-2.8,2.11,9.86,9.86,0,0,0-1.83,3.26,13.86,13.86,0,0,0,0,8.39,9.86,9.86,0,0,0,1.83,3.26,8,8,0,0,0,2.8,2.11A8.56,8.56,0,0,0,512.91,126.75Z"/><path d="M536.82,134V98.87H545l13.78,21.47V98.87H567V134h-8.22L545,112.51V134Z"/></svg>