<svg id="Layer_1" data-name="Layer 1" xmlns="http://www.w3.org/2000/svg" viewBox="0 0 40 40"><defs><style>.cls-1{fill:#fdf1e8;}</style></defs><path class="cls-1" d="M20,38A18,18,0,1,1,38,20,18,18,0,0,1,20,38Zm-8.78-6.22v0A14.67,14.67,0,0,0,25.5,33.66a63.66,63.66,0,0,0-3-10.76,22.71,22.71,0,0,0-8.19,5,17.68,17.68,0,0,0-3,3.7v0h0l0,.06,0,0,0,0,0,.06Zm17.38-9.9a19.66,19.66,0,0,0-2.65.18,67.15,67.15,0,0,1,2.7,9.83,14.48,14.48,0,0,0,5.8-9.22,21.43,21.43,0,0,0-5.85-.79Zm-23.33-2V20A14.71,14.71,0,0,0,8.74,29.5a24.23,24.23,0,0,1,12.19-9.68l.21-.06c-.32-.7-.62-1.33-.92-1.92A55.71,55.71,0,0,1,5.47,19.92ZM28,18.83a38.19,38.19,0,0,1,6.66.61,14.61,14.61,0,0,0-3.05-8.39,21,21,0,0,1-7.92,5.55l.06,0-.06,0c.32.67.6,1.3.84,1.86l.15.36.07.18A27.11,27.11,0,0,1,28,18.83Zm-14.56-12a14.72,14.72,0,0,0-7.8,9.74A56.16,56.16,0,0,0,18.13,15h.05l0,0,.1,0h0l.07,0h.07l.07,0h0l0,0h0a95.35,95.35,0,0,0-5.16-8ZM20,5.31a15.25,15.25,0,0,0-2.94.28,81.38,81.38,0,0,1,5.19,8.15A17.44,17.44,0,0,0,29.51,8.8,14.73,14.73,0,0,0,20,5.31Z"/></svg>