<svg id="Layer_1" data-name="Layer 1" xmlns="http://www.w3.org/2000/svg" viewBox="0 0 1574.48 234.09"><defs><style>.cls-1{fill:#fdf1e8;}</style></defs><path class="cls-1" d="M291.87,100.7a2.09,2.09,0,0,0-1.54-.65,2.22,2.22,0,0,0-2.21,2.26,2.36,2.36,0,0,0,.69,1.65l13,13.11-13,13.07a2.37,2.37,0,0,0-.69,1.64,2.22,2.22,0,0,0,2.21,2.27,2.06,2.06,0,0,0,1.54-.66l14.47-14.56a2.49,2.49,0,0,0,.78-1.78,2.42,2.42,0,0,0-.78-1.77Z"/><path class="cls-1" d="M981.14,98.15a2.09,2.09,0,0,0-1.54-.65,2.22,2.22,0,0,0-2.21,2.26,2.36,2.36,0,0,0,.69,1.65l13,13.11-13,13.07a2.37,2.37,0,0,0-.69,1.65,2.22,2.22,0,0,0,2.21,2.26,2.09,2.09,0,0,0,1.54-.65l14.47-14.57a2.49,2.49,0,0,0,.78-1.78,2.42,2.42,0,0,0-.78-1.77Z"/><path class="cls-1" d="M1263.83,98.15a2.09,2.09,0,0,0-1.54-.65,2.22,2.22,0,0,0-2.22,2.26,2.36,2.36,0,0,0,.69,1.65l13,13.11-13,13.07a2.37,2.37,0,0,0-.69,1.65,2.23,2.23,0,0,0,2.22,2.26,2.09,2.09,0,0,0,1.54-.65l14.46-14.57a2.45,2.45,0,0,0,.78-1.78,2.42,2.42,0,0,0-.78-1.77Z"/></svg>