<svg id="Layer_1" data-name="Layer 1" xmlns="http://www.w3.org/2000/svg" viewBox="0 0 40 40"><path d="M21,28.76H17.08V17.08H21v2a4.49,4.49,0,0,1,3.43-1.72,4.38,4.38,0,0,1,4.36,4.39v7.06H24.87V22.19a2.21,2.21,0,0,0-2.19-1.89,1.74,1.74,0,0,0-1.26.58A1.8,1.8,0,0,0,21,22.19Zm-5.84,0H11.24V17.08h3.89ZM13.19,15.13a1.95,1.95,0,1,1,1.94-1.94,1.95,1.95,0,0,1-1.94,1.94Z"/><path d="M33.39,6.09a.52.52,0,0,1,.52.52V33.39a.52.52,0,0,1-.52.52H6.61a.52.52,0,0,1-.52-.52V6.61a.52.52,0,0,1,.52-.52H33.39m0-3.09H6.61A3.6,3.6,0,0,0,3,6.61V33.39A3.6,3.6,0,0,0,6.61,37H33.39A3.6,3.6,0,0,0,37,33.39V6.61A3.6,3.6,0,0,0,33.39,3Z"/></svg>